<svg xmlns="http://www.w3.org/2000/svg" viewBox="0 0 512 512" role="img" aria-label="Omni View logo">
  <defs>
    <radialGradient id="g" cx="30%" cy="25%" r="80%">
      <stop offset="0" stop-color="#BFE8FF"/>
      <stop offset="0.35" stop-color="#3DBBFF"/>
      <stop offset="0.7" stop-color="#0B6FD6"/>
      <stop offset="1" stop-color="#061C3D"/>
    </radialGradient>
    <linearGradient id="orbit" x1="0" y1="0" x2="1" y2="1">
      <stop offset="0" stop-color="#EAF6FF" stop-opacity="0.95"/>
      <stop offset="0.5" stop-color="#FFFFFF" stop-opacity="0.92"/>
      <stop offset="1" stop-color="#CFEFFF" stop-opacity="0.95"/>
    </linearGradient>
    <filter id="soft" x="-20%" y="-20%" width="140%" height="140%">
      <feGaussianBlur in="SourceAlpha" stdDeviation="6" result="b"/>
      <feOffset in="b" dx="0" dy="8" result="o"/>
      <feColorMatrix in="o" type="matrix"
        values="0 0 0 0 0
                0 0 0 0 0
                0 0 0 0 0
                0 0 0 0.22 0" result="s"/>
      <feMerge>
        <feMergeNode in="s"/>
        <feMergeNode in="SourceGraphic"/>
      </feMerge>
    </filter>
  </defs>

  <!-- Subtle shadow -->
  <ellipse cx="256" cy="452" rx="128" ry="26" fill="#0B1B3B" opacity="0.14" filter="url(#soft)"/>

  <!-- Globe -->
  <circle cx="256" cy="236" r="170" fill="url(#g)"/>

  <!-- Grid lines (very subtle) -->
  <g opacity="0.14" stroke="#EAF6FF" stroke-width="3">
    <path d="M96 236h320"/>
    <path d="M256 66v340"/>
    <path d="M120 180c42 28 92 44 136 44s94-16 136-44"/>
    <path d="M120 292c42-28 92-44 136-44s94 16 136 44"/>
    <path d="M164 98c-26 42-42 90-42 138s16 96 42 138"/>
    <path d="M348 98c26 42 42 90 42 138s-16 96-42 138"/>
  </g>

  <!-- Simplified continents -->
  <g fill="#EAF6FF" opacity="0.95">
    <path d="M207 120c-22 10-38 26-47 46 6 10 18 16 34 18 10 1 20-2 30-9 12-8 26-10 42-7 10 2 18 6 24 12 8 7 18 10 30 8 8-1 14-5 18-12-9-26-27-46-54-59-23-11-50-10-77 3z"/>
    <path d="M312 214c-18 4-32 14-42 30-7 11-17 18-30 20-14 3-25 10-32 22-8 13-10 27-5 41 7 20 22 34 44 42 25 9 51 10 76 2 26-9 46-24 60-46-6-26-18-46-36-60-10-8-22-12-35-13z"/>
  </g>

  <!-- Orbit ring -->
  <g fill="none" stroke="url(#orbit)" stroke-width="18" stroke-linecap="round" opacity="0.98">
    <path d="M76 286c76 92 188 120 284 72 35-18 63-44 82-75"/>
    <path d="M98 256c36-86 118-146 214-154 55-5 106 10 148 40"/>
  </g>

  <!-- Orbit nodes -->
  <g fill="#0B2E68">
    <circle cx="84" cy="286" r="10"/>
    <circle cx="446" cy="286" r="10"/>
    <circle cx="398" cy="132" r="10"/>
  </g>
</svg>
